<?xml version="1.0" encoding="utf-8"?>
<!-- Generator: Adobe Illustrator 19.1.0, SVG Export Plug-In . SVG Version: 6.00 Build 0)  -->
<svg version="1.1" id="Layer_1" xmlns="http://www.w3.org/2000/svg" xmlns:xlink="http://www.w3.org/1999/xlink" x="0px" y="0px"
	 viewBox="0 0 902 20" style="enable-background:new 0 0 902 20;" xml:space="preserve">
<style type="text/css">
	.st0{fill:none;stroke:#BBDEFB;stroke-width:2;stroke-miterlimit:10;}
	.st1{fill:#64B5F6;}
</style>
<line class="st0" x1="2.2" y1="10" x2="414.2" y2="10"/>
<line class="st0" x1="487.2" y1="10" x2="899.2" y2="10"/>
<path class="st1" d="M449.6,19.3l-7.8-7.8c-0.9-0.9-0.9-2.3,0-3.2l7.8-7.8c0.9-0.9,2.3-0.9,3.2,0l7.8,7.8c0.9,0.9,0.9,2.3,0,3.2
	l-7.8,7.8C451.9,20.2,450.5,20.2,449.6,19.3z"/>
<g>
	<line class="st0" x1="436" y1="3.6" x2="430.3" y2="9.4"/>
	<line class="st0" x1="430.3" y1="9.4" x2="436.5" y2="15.7"/>
</g>
<g>
	<line class="st0" x1="466.8" y1="3.6" x2="472.5" y2="9.4"/>
	<line class="st0" x1="472.5" y1="9.4" x2="466.3" y2="15.7"/>
</g>
</svg>
