<?xml version="1.0" encoding="utf-8"?>
<!-- Generator: Adobe Illustrator 19.1.0, SVG Export Plug-In . SVG Version: 6.00 Build 0)  -->
<svg version="1.1" id="Layer_1" xmlns="http://www.w3.org/2000/svg" xmlns:xlink="http://www.w3.org/1999/xlink" x="0px" y="0px"
	 viewBox="0 0 70 70" style="enable-background:new 0 0 70 70;" xml:space="preserve">
<style type="text/css">
	.st0{fill:none;stroke:#FFFFFF;stroke-width:3;stroke-linecap:square;stroke-linejoin:bevel;stroke-miterlimit:10;}
	.st1{fill:none;stroke:#FFFFFF;stroke-width:3;stroke-linecap:square;stroke-linejoin:round;stroke-miterlimit:10;}
	.st2{fill:none;stroke:#FFFFFF;stroke-width:3;stroke-linejoin:round;stroke-miterlimit:10;}
</style>
<path class="st0" d="M32.5,68V42.5h-31c0-7,0-20.3,0-20.3c0-0.7,0.1-1.8,0.8-2.8c0.9-1.3,2.9-1.6,4-1.7c3.5-0.3,14.7-0.3,29.7,0"/>
<polyline class="st1" points="48,17.5 56.5,17.5 56.5,42.5 29,42.5 "/>
<path class="st2" d="M41.5,31V1.5c-6,0-11.3,0-17.5,0c-0.2,0-1.2-0.3-1.6,0.2c-0.3,0.4-0.9,0.2-0.9,0.4v8.4H42"/>
<polyline class="st1" points="58,24.5 68,24.5 64.6,37.5 58,37.5 "/>
</svg>
