<?xml version="1.0" encoding="utf-8"?>
<!-- Generator: Adobe Illustrator 19.1.0, SVG Export Plug-In . SVG Version: 6.00 Build 0)  -->
<svg version="1.1" id="Layer_1" xmlns="http://www.w3.org/2000/svg" xmlns:xlink="http://www.w3.org/1999/xlink" x="0px" y="0px"
	 viewBox="0 0 14.1 12" style="enable-background:new 0 0 14.1 12;" xml:space="preserve">
<style type="text/css">
	.st0{fill:none;stroke:#FFFFFF;stroke-miterlimit:10;}
	.st1{fill:none;stroke:#FFFFFF;stroke-width:0.5;stroke-miterlimit:10;}
</style>
<g>
	<line class="st0" x1="0.2" y1="1.8" x2="3.2" y2="1.8"/>
	<line class="st0" x1="0.2" y1="3.8" x2="3.2" y2="3.8"/>
	<path class="st1" d="M2.4,11.7H1.1c-0.5,0-0.8-0.4-0.8-0.8V1.1c0-0.5,0.4-0.8,0.8-0.8h1.4c0.5,0,0.8,0.4,0.8,0.8v9.9
		C3.3,11.4,2.9,11.7,2.4,11.7z"/>
	<g>
		<line class="st0" x1="4.2" y1="1.8" x2="7.2" y2="1.8"/>
		<line class="st0" x1="4.2" y1="3.8" x2="7.2" y2="3.8"/>
		<path class="st1" d="M6.4,11.7H5c-0.5,0-0.8-0.4-0.8-0.8V1.1c0-0.5,0.4-0.8,0.8-0.8h1.4c0.5,0,0.8,0.4,0.8,0.8v9.9
			C7.2,11.4,6.8,11.7,6.4,11.7z"/>
	</g>
	<g>
		<line class="st0" x1="8" y1="2.5" x2="10.8" y2="1.5"/>
		<line class="st0" x1="8.6" y1="4.4" x2="11.5" y2="3.4"/>
		<path class="st1" d="M13.3,11.2L12,11.6c-0.4,0.2-0.9-0.1-1.1-0.5L7.6,1.9C7.5,1.5,7.7,1,8.1,0.8l1.3-0.5c0.4-0.2,0.9,0.1,1.1,0.5
			l3.4,9.3C14,10.6,13.7,11,13.3,11.2z"/>
	</g>
</g>
</svg>
