<?xml version="1.0" encoding="utf-8"?>
<!-- Generator: Adobe Illustrator 19.1.0, SVG Export Plug-In . SVG Version: 6.00 Build 0)  -->
<svg version="1.1" xmlns="http://www.w3.org/2000/svg" xmlns:xlink="http://www.w3.org/1999/xlink" x="0px" y="0px"
	 viewBox="0 0 26.7 26.7" style="enable-background:new 0 0 26.7 26.7;" xml:space="preserve">
<style type="text/css">
	.st0{clip-path:url(#SVGID_2_);}
	.st1{fill:#FFFFFF;stroke:#000000;stroke-miterlimit:10;}
	.st2{fill:#48A075;stroke:#231815;stroke-miterlimit:10;}
	.st3{fill:#FFFFFF;}
	.st4{fill:none;stroke:#CCCCCC;stroke-miterlimit:10;}
	.st5{fill:#FACB33;}
	.st6{fill:none;stroke:#FFFFFF;stroke-miterlimit:10;}
	.st7{fill:#2E2F34;stroke:#000000;stroke-miterlimit:10;}
	.st8{fill:#FFFF8D;}
	.st9{fill:#EA80FC;}
	.st10{fill:#CCFF90;}
	.st11{fill:#BBDEFB;}
	.st12{fill:#6DDCC1;stroke:#000000;stroke-miterlimit:10;}
	.st13{fill:#632E8D;}
	.st14{fill:#1A1A1A;fill-opacity:0.8;stroke:#000000;stroke-miterlimit:10;}
	.st15{fill:none;stroke:#000000;stroke-miterlimit:10;}
	.st16{fill:#E56292;}
	.st17{fill:#F2F2F2;}
	.st18{fill:#DC4240;stroke:#000000;stroke-miterlimit:10;}
	.st19{fill:#231815;}
	.st20{fill:none;stroke:#F15A24;stroke-miterlimit:10;}
	.st21{fill:none;stroke:#F15A24;stroke-miterlimit:10;stroke-dasharray:2,2;}
	.st22{fill:#E56292;stroke:#000000;stroke-miterlimit:10;}
	.st23{fill:#E56292;stroke:#FFFFFF;stroke-miterlimit:10;}
	.st24{fill:#2C5379;stroke:#42210B;stroke-miterlimit:10;}
	.st25{fill:#FFFFFF;stroke:#143353;stroke-width:0.75;stroke-miterlimit:10;}
	.st26{fill:#CCCCCC;stroke:#143353;stroke-miterlimit:10;}
	.st27{fill:#143353;stroke:#000000;stroke-width:0.2;stroke-miterlimit:10;}
	.st28{fill:#FFFFFF;stroke:#42210B;stroke-width:0.3;stroke-miterlimit:10;}
	.st29{display:none;}
	.st30{display:inline;}
	.st31{display:inline;clip-path:url(#SVGID_4_);}
</style>
<g id="Layer_1">
</g>
<g id="Contact">
</g>
<g id="About">
	<g>
		<circle class="st25" cx="13.4" cy="13.4" r="13"/>
		<path class="st26" d="M20.5,18c0,0.8-0.2,1.4-0.7,1.9c-0.5,0.5-1.1,0.7-2,0.7H9c-0.8,0-1.5-0.2-2-0.7c-0.5-0.5-0.7-1.1-0.7-1.9
			c0-0.4,0-0.7,0-1c0-0.3,0.1-0.7,0.1-1.1c0.1-0.4,0.2-0.8,0.3-1.1c0.1-0.3,0.3-0.7,0.4-1c0.2-0.3,0.4-0.6,0.6-0.8
			c0.2-0.2,0.5-0.4,0.9-0.5c0.3-0.1,0.7-0.2,1.1-0.2c0.1,0,0.2,0.1,0.4,0.2c0.2,0.1,0.5,0.3,0.8,0.5c0.3,0.2,0.6,0.3,1.1,0.5
			c0.4,0.1,0.9,0.2,1.3,0.2c0.5,0,0.9-0.1,1.3-0.2c0.4-0.1,0.8-0.3,1.1-0.5c0.3-0.2,0.5-0.3,0.8-0.5c0.2-0.1,0.4-0.2,0.4-0.2
			c0.4,0,0.8,0.1,1.1,0.2c0.3,0.1,0.6,0.3,0.9,0.5c0.2,0.2,0.4,0.5,0.6,0.8c0.2,0.3,0.3,0.6,0.4,1c0.1,0.3,0.2,0.7,0.3,1.1
			c0.1,0.4,0.1,0.8,0.1,1.1C20.5,17.3,20.5,17.6,20.5,18z M16.1,6.2C16.9,7,17.2,7.9,17.2,9s-0.4,2-1.1,2.7
			c-0.8,0.8-1.7,1.1-2.7,1.1c-1.1,0-2-0.4-2.7-1.1C9.9,10.9,9.5,10,9.5,9s0.4-2,1.1-2.7s1.7-1.1,2.7-1.1C14.4,5.1,15.4,5.5,16.1,6.2
			z"/>
	</g>
</g>
<g id="Homepage">
</g>
</svg>
