<svg version="1.1" id="Layer_1" xmlns="http://www.w3.org/2000/svg" xmlns:xlink="http://www.w3.org/1999/xlink" x="0px" y="0px"
	 viewBox="-265 395.7 80.5 15.3" style="enable-background:new -265 395.7 80.5 15.3;" xml:space="preserve">
<style type="text/css">
	.st0{fill:none;stroke:#133251;stroke-linecap:round;stroke-miterlimit:10;}
	.st1{fill:#FFFFFF;stroke:#41210D;stroke-width:0.1;stroke-miterlimit:10;}
	
	<defs>
		<style>
			.svgLoaded {
			-webkit-animation: stroke 5s ease-in-out forwards;
			-o-animation: stroke 5s ease-in-out forwards;
			-moz-animation: stroke 5s ease-in-out forwards;
			animation: stroke 5s ease-in-out forwards;
			stroke-dasharray: 200;
			stroke-dashoffset: 0;
			}
			
			@-webkit-keyframes stroke {
			  0% { stroke-dashoffset:  200 }
			  100% { stroke-dashoffset: 0 }
			}
			@-moz-keyframes stroke {
			  0% { stroke-dashoffset:  200 } 
			  100% { stroke-dashoffset: 0 }
			}
		</style>
	</defs>
	
</style>
<g id="XMLID_1_">
	<path class="st0" d="M-264.4,396.3c26.5,0,45,0,71.4,0c4.5-0.4,8.2,3.3,8.1,7.3c-0.1,3.9-3.8,7.2-8.1,6.8c-13.2,0-26.5,0-39.7,0
		h-17.2"/>
</g>
<rect x="-257.4" y="395.9" transform="matrix(-0.7071 -0.7071 0.7071 -0.7071 -718.9032 494.7519)" class="st1" width="0.8" height="0.8"/>
<rect x="-241.4" y="395.9" transform="matrix(-0.7071 -0.7071 0.7071 -0.7071 -691.5923 506.0682)" class="st1" width="0.8" height="0.8"/>
<rect x="-225.4" y="395.9" transform="matrix(-0.7071 -0.7071 0.7071 -0.7071 -664.2882 517.391)" class="st1" width="0.8" height="0.8"/>
<rect x="-209.4" y="395.9" transform="matrix(-0.7071 -0.7071 0.7071 -0.7071 -636.9691 528.6989)" class="st1" width="0.8" height="0.8"/>
<rect x="-209.4" y="410" transform="matrix(-0.7071 -0.7071 0.7071 -0.7071 -646.9513 552.798)" class="st1" width="0.8" height="0.8"/>
<rect x="-225.4" y="410" transform="matrix(-0.7071 -0.7071 0.7071 -0.7071 -674.2676 541.4833)" class="st1" width="0.8" height="0.8"/>
<rect x="-241.4" y="410" transform="matrix(-0.7071 -0.7071 0.7071 -0.7071 -701.5763 530.1716)" class="st1" width="0.8" height="0.8"/>
</svg>
