<?xml version="1.0" encoding="utf-8"?>
<!-- Generator: Adobe Illustrator 19.1.0, SVG Export Plug-In . SVG Version: 6.00 Build 0)  -->
<svg version="1.1" id="Layer_1" xmlns="http://www.w3.org/2000/svg" xmlns:xlink="http://www.w3.org/1999/xlink" x="0px" y="0px"
	 viewBox="0 0 80.5 2.3" style="enable-background:new 0 0 80.5 2.3;" xml:space="preserve">
<style type="text/css">
	.st0{fill:none;stroke:#133251;stroke-linecap:round;stroke-miterlimit:10;}
	.st1{fill:#FFFFFF;stroke:#41210D;stroke-width:0.1;stroke-miterlimit:10;}
	<defs>
	<style>
		#Layer_1:hover .st0 {
		-webkit-animation: stroke 4s ease-in-out forwards;
		-o-animation: stroke 4s ease-in-out forwards;
		-moz-animation: stroke 4s ease-in-out forwards;
		animation: stroke 4s ease-in-out forwards;
		stroke-dasharray: 200;
		stroke-dashoffset: 0;
		}
		
		@-webkit-keyframes stroke {
		  0% { stroke-dashoffset:  200 }
		  100% { stroke-dashoffset: 0 }
		}
		@-moz-keyframes stroke {
		  0% { stroke-dashoffset:  200 } 
		  100% { stroke-dashoffset: 0 }
		}
	</style>
</defs>
</style>
<g id="XMLID_1_">
	<path class="st0" d="M0.6,1.2c26.5,0,53,0,79.4,0"/>
</g>
<rect x="7.6" y="0.8" transform="matrix(0.7071 0.7071 -0.7071 0.7071 3.2066 -5.2904)" class="st1" width="0.8" height="0.8"/>
<rect x="23.6" y="0.8" transform="matrix(0.7071 0.7071 -0.7071 0.7071 7.8921 -16.6021)" class="st1" width="0.8" height="0.8"/>
<rect x="39.6" y="0.8" transform="matrix(0.7071 0.7071 -0.7071 0.7071 12.5756 -27.9092)" class="st1" width="0.8" height="0.8"/>
<rect x="55.6" y="0.8" transform="matrix(0.7071 0.7071 -0.7071 0.7071 17.2635 -39.2268)" class="st1" width="0.8" height="0.8"/>
<rect x="71.6" y="0.8" transform="matrix(0.7071 0.7071 -0.7071 0.7071 21.9514 -50.5443)" class="st1" width="0.8" height="0.8"/>
</svg>
